<svg xmlns="http://www.w3.org/2000/svg" xmlns:svg="http://www.w3.org/2000/svg" id="Layer_1" width="110" height="110" x="0" y="0" enable-background="new 0 0 100 100" version="1.1" viewBox="0 0 110 110" xml:space="preserve"><metadata id="metadata9"/><path id="path3" d="m 86.349458,51.132 c -1.195,0 -1.925,0 -1.925,0 l 0,-15.653 c -0.098,-19.194 -13.19,-29.643 -29.101,-29.643 -15.906,0 -30.172,10.946 -29.675,29.643 l -0.016,15.633 c 0,0 0.24,0.021 -0.96,0.021 -1.27,0 -9.64,1.473 -9.64,8.936 l 0,35.824 c 0,7.959 9.42,9.943 9.64,9.943 16.76,0 44.438,0 61.202,0 0.22,0 9.154,-0.993 9.154,-9.943 l 0,-35.329 c 0.001,-8.455 -8.454,-9.432 -8.679,-9.432 z m -22.168,40.923 -18.273,0 4.963,-14.566 c -2.12,-1.412 -3.528,-3.866 -3.528,-6.665 0,-4.384 3.442,-7.938 7.687,-7.938 4.245,0 7.687,3.557 7.687,7.938 0,2.795 -1.404,5.253 -3.522,6.661 l 4.986,14.57 z m -25.073,-40.923 0.016,-15.446 c 0,-9.949 6.071,-17.903 15.906,-17.903 9.741,0 15.905,6.958 15.905,17.903 l 0.01,15.446 -31.837,0 z" style="fill:#aaa;fill-opacity:1"/></svg>