<svg xmlns="http://www.w3.org/2000/svg" xmlns:svg="http://www.w3.org/2000/svg" id="Layer_1" width="110" height="110" x="0" y="0" enable-background="new 0 0 100 100" version="1.1" viewBox="0 0 110 110" xml:space="preserve"><metadata id="metadata9"/><path id="path3" d="m 84.243667,31.812333 c 0,-15.646 -13.19,-26.6429997 -29.101,-26.6429997 -15.906,0 -30.172,10.9459997 -29.675,29.6429997 l -0.016,15.633 c 0,0 0.24,0.021 -0.96,0.021 -1.27,0 -9.64,1.473 -9.64,8.936 l 0,35.824 c 0,7.958997 9.42,9.942997 9.64,9.942997 16.76,0 44.438,0 61.202,0 0.22,0 9.154,-0.993 9.154,-9.942997 l 0,-35.329 c 0,-8.457 -8.455,-9.434 -8.681,-9.434 -1.194,0 -47.241,0 -47.241,0 l 0.016,-15.446 c 0,-9.949 6.071,-17.903 15.906,-17.903 9.741,0 16.483,6.383 16.483,17.383 m -7.33,56.891 -18.273,0 4.963,-14.565 c -2.12,-1.412 -3.528,-3.866 -3.528,-6.665 0,-4.385 3.442,-7.938 7.687,-7.938 4.245,0 7.687,3.558 7.687,7.938 0,2.795 -1.404,5.253 -3.522,6.66 l 4.986,14.57 z" style="fill:#4b9441;fill-opacity:.67"/></svg>